<svg width="202" height="58" viewBox="0 0 202 58" fill="none" xmlns="http://www.w3.org/2000/svg">
<g clip-path="url(#clip0_4_43)" filter="url(#filter0_d_4_43)">
<rect width="194" height="50" transform="translate(4)" fill="white"/>
<path d="M14.0132 0.175978C10.0436 1.68723 5.67959 5.9513 4.30133 11.3077C2.5558 18.0923 9.81962 20.9614 10.4154 20.0222C11.1166 18.9165 9.11383 18.5427 8.70153 15.0224C8.16877 10.4756 10.4947 5.39504 13.4223 3.16584C13.9665 2.75169 13.9404 3.32812 13.9404 4.39436C13.9404 6.30138 13.8245 23.4176 13.8245 26.9901C13.8245 31.8238 13.6048 33.3502 13.2101 34.8582C12.8102 36.3866 12.1678 37.4194 12.6545 37.8175C13.1987 38.2625 15.5217 37.204 16.8667 35.4981C18.4793 33.4523 19.0438 30.9952 19.1453 28.3269C19.2677 25.1104 19.2625 20.0065 19.2677 17.0952C19.2726 14.4252 19.317 6.60665 19.2161 1.90647C19.1916 0.7536 15.6735 -0.455934 14.0132 0.175978ZM197.101 25.5694C196.525 25.5694 196.263 26.1087 196.045 27.0168C195.291 30.1743 194.499 30.8869 193.476 30.8869C192.335 30.8869 191.308 29.3235 191.045 26.1942C190.837 23.7336 190.871 19.2031 191.136 14.6969C191.19 13.771 190.909 12.8549 188.176 11.9527C187 11.5643 185.291 10.9933 184.44 12.8602C182.036 18.1348 181.095 22.3226 180.873 24.0231C180.862 24.1112 180.743 24.129 180.722 23.9234C180.581 22.5611 180.266 20.0851 180.227 14.8835C180.219 13.8686 179.982 13.0047 178.75 12.2974C177.95 11.8382 175.521 11.0268 174.647 11.9924C173.889 12.7822 173.011 14.9076 172.1 17.4269C171.359 19.4742 170.842 20.8594 170.842 20.8594C170.842 20.8594 170.852 15.3345 170.861 13.2388C170.865 12.4481 170.268 12.1844 170.088 12.1369C169.279 11.9233 167.683 11.5664 167.006 11.5664C166.17 11.5664 165.965 11.991 165.965 12.6095C165.965 12.6905 165.833 19.8836 165.833 24.9134C165.833 25.1318 165.833 25.3703 165.834 25.6237C165.372 27.9353 163.873 31.0735 162.243 31.0735C160.611 31.0735 159.841 29.7616 159.841 23.7653C159.841 20.2675 159.956 18.7462 160.013 16.2165C160.046 14.7592 160.11 13.6399 160.106 13.3862C160.094 12.6074 158.612 12.2149 157.923 12.0696C157.23 11.9236 156.628 11.8667 156.158 11.891C155.493 11.9251 155.022 12.3218 155.022 12.8673C155.022 13.1599 155.026 13.7158 155.026 13.7158C154.169 12.492 152.79 11.6403 151.874 11.3935C149.404 10.7271 146.826 11.3178 144.882 13.7897C143.337 15.754 142.406 17.979 142.039 21.1754C141.771 23.5119 141.859 25.8818 142.335 27.8858C141.759 30.147 140.691 31.0735 139.521 31.0735C137.822 31.0735 136.591 28.5542 136.734 24.1967C136.828 21.3305 137.459 19.3194 138.149 16.4096C138.443 15.1689 138.204 14.5198 137.605 13.8974C137.055 13.3263 135.884 13.035 134.2 13.3936C133.001 13.6491 131.286 13.9244 129.717 14.1356C129.717 14.1356 129.812 13.7924 129.889 13.1871C130.298 10.0133 126.503 10.2709 125.292 11.2846C124.569 11.8898 124.077 12.6036 123.89 13.887C123.594 15.9234 125.422 16.8843 125.422 16.8843C124.822 19.3793 123.352 22.6379 121.835 24.9941C121.022 26.2565 120.4 27.1919 119.597 28.1863C119.594 27.8167 119.592 27.447 119.591 27.0774C119.572 21.8325 119.649 17.7046 119.683 16.2168C119.716 14.7595 119.78 13.6701 119.776 13.4165C119.768 12.8469 119.402 12.6315 118.64 12.3594C117.967 12.1185 117.171 11.9518 116.346 11.8937C115.304 11.8201 114.676 12.322 114.693 12.916C114.696 13.0281 114.696 13.7167 114.696 13.7167C113.839 12.4929 112.46 11.6412 111.544 11.3944C109.074 10.728 106.496 11.3187 104.552 13.7906C103.008 15.7548 101.996 18.5112 101.709 21.1516C101.442 23.6125 101.492 25.7038 101.856 27.4654C101.463 29.2294 100.334 31.0741 99.057 31.0741C97.4248 31.0741 96.496 29.7622 96.496 23.7659C96.496 20.2681 96.6116 18.7471 96.6681 16.2171C96.7014 14.7598 96.765 13.6405 96.7611 13.3868C96.749 12.608 95.2673 12.2155 94.5778 12.0702C93.8564 11.9183 93.2335 11.8628 92.7553 11.8948C92.1239 11.9376 91.6806 12.4508 91.6806 12.8338V13.7167C90.8237 12.4929 89.4451 11.6412 88.5284 11.3944C86.0585 10.728 83.4955 11.3282 81.5372 13.7906C80.2601 15.3962 79.2262 17.1762 78.6941 21.1166C78.5404 22.2552 78.4725 23.3218 78.4813 24.3183C77.972 27.1486 75.7231 30.4105 73.8829 30.4105C72.8063 30.4105 71.7809 28.513 71.7809 24.4684C71.7809 19.0808 72.1482 11.4104 72.2099 10.6711C72.2099 10.6711 74.5345 10.6352 74.9847 10.6304C76.1446 10.6189 77.1947 10.6438 78.7388 10.572C79.5135 10.5361 80.2598 8.00962 79.4603 7.69692C79.0983 7.55541 76.5369 7.4314 75.522 7.41182C74.6684 7.39432 72.2915 7.23441 72.2915 7.23441C72.2915 7.23441 72.5046 2.14292 72.5546 1.60505C72.5967 1.15648 71.9585 0.925966 71.5926 0.78564C70.7023 0.443873 69.9064 0.279813 68.9627 0.102997C67.6588 -0.141461 67.067 0.0976565 66.9518 1.09804C66.7778 2.61552 66.6877 7.06145 66.6877 7.06145C65.7305 7.06145 62.4624 6.89146 61.5053 6.89146C60.6157 6.89146 59.6563 10.367 60.8857 10.4097C62.3002 10.4595 64.7652 10.5026 66.3994 10.5474C66.3994 10.5474 66.3266 18.3445 66.3266 20.7517C66.3266 21.0077 66.3276 21.2543 66.3295 21.4937C65.4302 25.7539 62.262 28.0552 62.262 28.0552C62.9423 25.2368 61.5526 23.1203 59.0497 21.3287C58.1272 20.6683 56.3069 19.4188 54.2699 18.049C54.2699 18.049 55.4497 16.9923 56.4959 14.866C57.2373 13.3601 57.2693 11.6367 55.4493 11.2567C52.4431 10.6286 49.9637 12.635 49.2243 14.7773C48.6514 16.4372 48.9569 17.6684 50.0792 18.9479C50.1612 19.0414 50.25 19.1366 50.3417 19.2327C49.663 20.4215 48.7307 22.0221 47.941 23.2633C45.7489 26.7095 44.0935 29.4353 42.8419 29.4353C41.8416 29.4353 41.8553 26.6679 41.8553 24.0768C41.8553 21.8432 42.0369 18.4848 42.1818 15.0078C42.2298 13.8579 41.5968 13.2029 40.5362 12.6095C39.8918 12.2491 38.5164 11.5403 37.7202 11.5403C36.528 11.5403 33.0882 11.6878 29.8381 20.2316C29.4284 21.3086 28.6237 23.2707 28.6237 23.2707L28.6929 12.9964C28.6929 12.7555 28.5516 12.5223 28.2284 12.363C27.6806 12.093 26.2178 11.5403 24.9172 11.5403C24.2976 11.5403 23.9881 11.8023 23.9881 12.3244L23.8745 28.399C23.8745 29.6204 23.9095 31.0453 24.0427 31.6684C24.1749 32.2926 24.3894 32.7999 24.6551 33.1019C24.9202 33.4033 25.227 33.6332 25.733 33.7282C26.2038 33.8163 28.7817 34.1171 28.9159 33.2217C29.0765 32.1487 29.0824 30.9881 30.4362 26.6596C32.5437 19.9207 35.2914 16.6327 36.5835 15.465C36.8091 15.2609 37.067 15.2487 37.0546 15.5828C36.9997 17.0599 36.8058 20.752 36.6749 23.8884C36.325 32.2819 38.0052 33.8376 40.4062 33.8376C42.2432 33.8376 44.8326 32.1786 47.6084 27.9801C49.3385 25.3635 51.0188 22.7979 52.2263 20.9487C53.0676 21.6566 54.0113 22.4181 54.9551 23.2319C57.1475 25.1229 57.8673 26.9198 57.3897 28.6245C57.0244 29.9278 55.6488 31.2708 53.2004 29.9655C52.4868 29.5848 52.1819 29.2905 51.4647 28.8609C51.0792 28.6304 50.4909 28.5613 50.138 28.8031C49.221 29.4312 48.6967 30.2304 48.3974 31.2195C48.1062 32.1819 49.1668 32.6907 50.2663 33.1357C51.213 33.5187 53.2478 33.8658 54.5454 33.9053C59.6011 34.0589 63.6517 31.6868 66.4709 25.5676C66.9759 30.8522 69.1236 33.8427 72.8559 33.8427C75.351 33.8427 77.8525 30.9118 78.9465 28.0285C79.2605 29.2039 79.7254 30.2256 80.3257 31.0901C83.2014 35.2308 88.7801 34.3396 91.5823 30.8237C92.4484 29.7373 92.5806 29.3466 92.5806 29.3466C92.9893 32.6667 95.9313 33.8269 97.6158 33.8269C99.5023 33.8269 101.45 33.0164 102.815 30.2233C102.972 30.5213 103.147 30.8109 103.341 31.0904C106.216 35.2311 111.795 34.3399 114.597 30.824C114.729 30.6588 114.844 30.5093 114.944 30.3749L115.026 32.556L112.447 34.7063C108.122 38.3082 104.837 41.0402 104.595 44.2218C104.288 48.2785 107.906 49.7862 110.647 49.9837C113.553 50.1935 116.046 48.7333 117.577 46.6895C118.923 44.8911 119.804 41.0198 119.74 37.196C119.714 35.6648 119.672 33.7181 119.638 31.6313C121.156 30.0292 122.867 28.0042 124.441 25.6343C126.158 23.0512 127.997 19.5828 128.939 16.8834C128.939 16.8834 130.536 16.8958 132.242 16.7944C132.787 16.762 132.944 16.8629 132.843 17.2266C132.721 17.6654 130.689 24.7912 132.544 29.538C133.814 32.7874 136.676 33.8329 138.374 33.8329C140.36 33.8329 142.261 32.4694 143.279 30.4446C143.402 30.6704 143.53 30.8887 143.67 31.0904C146.546 35.2311 152.105 34.3349 154.927 30.824C155.563 30.0319 155.925 29.3469 155.925 29.3469C156.531 32.783 159.471 33.8445 161.155 33.8445C162.909 33.8445 164.574 33.1909 165.925 30.2862C165.981 31.5654 166.07 32.6109 166.21 32.9405C166.296 33.1422 166.795 33.3953 167.157 33.5175C168.762 34.0581 170.399 33.8026 171.004 33.6914C171.424 33.6142 171.751 33.3084 171.796 32.5186C171.913 30.4449 171.841 26.9608 172.533 24.3711C173.694 20.0254 174.777 18.3395 175.291 17.5052C175.579 17.0377 175.903 16.9605 175.915 17.4554C175.939 18.4566 175.994 21.397 176.444 25.3475C176.774 28.2528 177.215 29.9702 177.554 30.5137C178.522 32.0677 179.718 32.1413 180.691 32.1413C181.31 32.1413 182.605 31.9861 182.49 30.997C182.433 30.5149 182.532 27.5354 183.677 23.2541C184.424 20.4583 185.671 17.9324 186.12 17.0086C186.286 16.668 186.363 16.9365 186.361 16.9887C186.266 18.9141 186.053 25.2119 186.916 28.6562C188.086 33.3226 191.471 33.8445 192.65 33.8445C195.168 33.8445 197.227 32.1039 197.921 27.5238C198.09 26.4205 197.842 25.5694 197.101 25.5694ZM91.629 22.7379C91.4847 25.1617 90.9643 27.188 90.1293 28.6598C88.6185 31.3236 85.6292 32.1683 84.3113 28.3192C83.361 25.5438 83.6845 21.7592 84.0799 19.7151C84.6665 16.6811 86.1355 14.5302 88.4288 14.734C90.7845 14.9434 91.9297 17.6945 91.629 22.7379ZM114.644 22.7729C114.509 25.0618 113.857 27.361 113.144 28.6601C111.674 31.3423 108.6 32.1807 107.326 28.3195C106.455 25.6812 106.664 22.2668 107.095 20.1156C107.654 17.3239 109.009 14.7343 111.444 14.7343C113.811 14.734 114.978 17.0937 114.644 22.7729ZM115.245 38.3883C115.213 42.5637 114.49 46.2246 112.939 47.2879C110.74 48.7956 107.784 47.6646 108.396 44.6178C108.938 41.9217 111.499 39.1682 115.251 35.804C115.251 35.804 115.259 36.5712 115.245 38.3883ZM154.974 22.7973C154.846 25.3101 154.234 27.2743 153.474 28.6598C152.004 31.342 148.952 32.1748 147.656 28.3192C146.95 26.2176 146.917 22.7074 147.425 19.7745C147.942 16.787 149.385 14.5302 151.774 14.734C154.131 14.9348 155.234 17.6945 154.974 22.7973Z" fill="black"/>
</g>
<defs>
<filter id="filter0_d_4_43" x="0" y="0" width="202" height="58" filterUnits="userSpaceOnUse" color-interpolation-filters="sRGB">
<feFlood flood-opacity="0" result="BackgroundImageFix"/>
<feColorMatrix in="SourceAlpha" type="matrix" values="0 0 0 0 0 0 0 0 0 0 0 0 0 0 0 0 0 0 127 0" result="hardAlpha"/>
<feOffset dy="4"/>
<feGaussianBlur stdDeviation="2"/>
<feComposite in2="hardAlpha" operator="out"/>
<feColorMatrix type="matrix" values="0 0 0 0 0 0 0 0 0 0 0 0 0 0 0 0 0 0 0.25 0"/>
<feBlend mode="normal" in2="BackgroundImageFix" result="effect1_dropShadow_4_43"/>
<feBlend mode="normal" in="SourceGraphic" in2="effect1_dropShadow_4_43" result="shape"/>
</filter>
<clipPath id="clip0_4_43">
<rect width="194" height="50" fill="white" transform="translate(4)"/>
</clipPath>
</defs>
</svg>
